<svg xmlns="http://www.w3.org/2000/svg" viewBox="0 0 920 140" width="920" style="max-width: 920px; background: transparent; font-family: -apple-system, 'Segoe UI', Roboto, 'Helvetica Neue', Arial, sans-serif;">
  <rect data-bg="white" x="0" y="0" width="920" height="140" fill="#FFFFFF" rx="8" ry="8"/>
  <defs>
    <marker id="arr-lc" viewBox="0 0 10 10" refX="9" refY="5" markerWidth="8" markerHeight="8" orient="auto">
      <path d="M 0 0 L 10 5 L 0 10 z" fill="#7C3AED"/>
    </marker>
  </defs>

  <!-- ===== Stage 1: Live Trading ===== -->
  <rect x="20" y="30" width="200" height="80" rx="10" fill="#F5F3FF" stroke="#7C3AED" stroke-width="1.5"/>
  <circle cx="50" cy="60" r="13" fill="#7C3AED"/>
  <text x="50" y="65" text-anchor="middle" font-size="13" font-weight="700" fill="#FFFFFF">1</text>
  <text x="73" y="65" font-size="14" font-weight="700" fill="#4C1D95">Live Trading</text>
  <text x="35" y="92" font-size="11" fill="#5B21B6">Users buy and sell YES / NO shares</text>

  <line x1="222" y1="70" x2="248" y2="70" stroke="#7C3AED" stroke-width="2" marker-end="url(#arr-lc)"/>

  <!-- ===== Stage 2: Market Closes ===== -->
  <rect x="250" y="30" width="200" height="80" rx="10" fill="#F5F3FF" stroke="#7C3AED" stroke-width="1.5"/>
  <circle cx="280" cy="60" r="13" fill="#7C3AED"/>
  <text x="280" y="65" text-anchor="middle" font-size="13" font-weight="700" fill="#FFFFFF">2</text>
  <text x="303" y="65" font-size="14" font-weight="700" fill="#4C1D95">Market Closes</text>
  <text x="265" y="92" font-size="11" fill="#5B21B6">Trading stops at the deadline</text>

  <line x1="452" y1="70" x2="478" y2="70" stroke="#7C3AED" stroke-width="2" marker-end="url(#arr-lc)"/>

  <!-- ===== Stage 3: Outcome Confirmed ===== -->
  <rect x="480" y="30" width="200" height="80" rx="10" fill="#F5F3FF" stroke="#7C3AED" stroke-width="1.5"/>
  <circle cx="510" cy="60" r="13" fill="#7C3AED"/>
  <text x="510" y="65" text-anchor="middle" font-size="13" font-weight="700" fill="#FFFFFF">3</text>
  <text x="533" y="65" font-size="14" font-weight="700" fill="#4C1D95">Outcome Confirmed</text>
  <text x="495" y="92" font-size="11" fill="#5B21B6">An oracle posts the official result</text>

  <line x1="682" y1="70" x2="708" y2="70" stroke="#7C3AED" stroke-width="2" marker-end="url(#arr-lc)"/>

  <!-- ===== Stage 4: Payouts (highlighted, deep purple) ===== -->
  <rect x="710" y="30" width="200" height="80" rx="10" fill="#4C1D95" stroke="#4C1D95" stroke-width="1.5"/>
  <circle cx="740" cy="60" r="13" fill="#FFFFFF"/>
  <text x="740" y="65" text-anchor="middle" font-size="13" font-weight="700" fill="#4C1D95">4</text>
  <text x="763" y="65" font-size="14" font-weight="700" fill="#FFFFFF">Payouts</text>
  <text x="725" y="92" font-size="11" fill="#C4B5FD">Winners get $1.00 each, losers get $0</text>
</svg>
