<svg xmlns="http://www.w3.org/2000/svg" viewBox="0 0 780 240" width="780" style="max-width: 780px; background: transparent; font-family: -apple-system, 'Segoe UI', Roboto, 'Helvetica Neue', Arial, sans-serif;">
  <defs>
    <marker id="arr-wi" viewBox="0 0 10 10" refX="9" refY="5" markerWidth="8" markerHeight="8" orient="auto">
      <path d="M 0 0 L 10 5 L 0 10 z" fill="#4C1D95"/>
    </marker>
  </defs>

  <!-- Left USDC -->
  <rect x="30" y="90" width="170" height="60" rx="6" ry="6"
        fill="#F5F3FF" stroke="#4C1D95" stroke-width="1.5"/>
  <text x="115" y="126" text-anchor="middle" font-size="16" fill="#4C1D95" font-weight="700">$1.00 USDC</text>

  <!-- YES share box -->
  <rect x="330" y="30" width="150" height="60" rx="6" ry="6"
        fill="#F5F3FF" stroke="#4C1D95" stroke-width="1.5"/>
  <text x="405" y="66" text-anchor="middle" font-size="15" fill="#4C1D95" font-weight="600">1 YES share</text>

  <!-- NO share box -->
  <rect x="330" y="150" width="150" height="60" rx="6" ry="6"
        fill="#F5F3FF" stroke="#4C1D95" stroke-width="1.5"/>
  <text x="405" y="186" text-anchor="middle" font-size="15" fill="#4C1D95" font-weight="600">1 NO share</text>

  <!-- Right USDC -->
  <rect x="580" y="90" width="170" height="60" rx="6" ry="6"
        fill="#F5F3FF" stroke="#4C1D95" stroke-width="1.5"/>
  <text x="665" y="126" text-anchor="middle" font-size="16" fill="#4C1D95" font-weight="700">$1.00 USDC</text>

  <!-- USDC -> YES -->
  <path d="M 200 110 C 255 110, 275 60, 328 60" fill="none" stroke="#4C1D95" stroke-width="1.8" marker-end="url(#arr-wi)"/>
  <text x="260" y="82" text-anchor="middle" font-size="13" fill="#4C1D95" font-weight="600">split</text>

  <!-- USDC -> NO -->
  <path d="M 200 130 C 255 130, 275 180, 328 180" fill="none" stroke="#4C1D95" stroke-width="1.8" marker-end="url(#arr-wi)"/>
  <text x="260" y="165" text-anchor="middle" font-size="13" fill="#4C1D95" font-weight="600">split</text>

  <!-- YES -> right USDC -->
  <path d="M 480 60 C 533 60, 553 110, 578 110" fill="none" stroke="#4C1D95" stroke-width="1.8" marker-end="url(#arr-wi)"/>
  <text x="525" y="82" text-anchor="middle" font-size="13" fill="#4C1D95" font-weight="600">merge</text>

  <!-- NO -> right USDC -->
  <path d="M 480 180 C 533 180, 553 130, 578 130" fill="none" stroke="#4C1D95" stroke-width="1.8" marker-end="url(#arr-wi)"/>
  <text x="525" y="165" text-anchor="middle" font-size="13" fill="#4C1D95" font-weight="600">merge</text>
</svg>
