<svg xmlns="http://www.w3.org/2000/svg" viewBox="0 0 920 200" width="920" style="max-width: 920px; background: transparent; font-family: -apple-system, Segoe UI, Roboto, Helvetica Neue, Arial, sans-serif;">
  <rect data-bg="white" x="0.0" y="0.0" width="920.0" height="200.0" fill="#FFFFFF" rx="8" ry="8"/>
  <defs>
    <marker id="arr-lc" viewBox="0 0 10 10" refX="9" refY="5" markerUnits="strokeWidth" markerWidth="9" markerHeight="9" orient="auto">
      <path d="M 0 0 L 10 5 L 0 10 z" fill="#4C1D95"/>
    </marker>
  </defs>

  <!-- Stage 1 -->
  <rect x="20" y="30" width="190" height="80" rx="8" fill="#F5F3FF" stroke="#4C1D95" stroke-width="1.5"/>
  <text x="115" y="55" text-anchor="middle" font-size="11" fill="#7C3AED" letter-spacing="1.2">STAGE 1</text>
  <text x="115" y="78" text-anchor="middle" font-size="16" font-weight="700" fill="#4C1D95">Live Trading</text>
  <text x="115" y="98" text-anchor="middle" font-size="11" fill="#5B21B6">Users buy and sell shares</text>

  <!-- Arrow 1→2 -->
  <line x1="212" y1="70" x2="238" y2="70" stroke="#4C1D95" stroke-width="2" marker-end="url(#arr-lc)"/>

  <!-- Stage 2 -->
  <rect x="240" y="30" width="190" height="80" rx="8" fill="#F5F3FF" stroke="#4C1D95" stroke-width="1.5"/>
  <text x="335" y="55" text-anchor="middle" font-size="11" fill="#7C3AED" letter-spacing="1.2">STAGE 2</text>
  <text x="335" y="78" text-anchor="middle" font-size="16" font-weight="700" fill="#4C1D95">Market Closes</text>
  <text x="335" y="98" text-anchor="middle" font-size="11" fill="#5B21B6">Deadline reached, no new orders</text>

  <!-- Arrow 2→3 -->
  <line x1="432" y1="70" x2="458" y2="70" stroke="#4C1D95" stroke-width="2" marker-end="url(#arr-lc)"/>

  <!-- Stage 3 -->
  <rect x="460" y="30" width="190" height="80" rx="8" fill="#F5F3FF" stroke="#4C1D95" stroke-width="1.5"/>
  <text x="555" y="55" text-anchor="middle" font-size="11" fill="#7C3AED" letter-spacing="1.2">STAGE 3</text>
  <text x="555" y="78" text-anchor="middle" font-size="16" font-weight="700" fill="#4C1D95">Oracle Reports</text>
  <text x="555" y="98" text-anchor="middle" font-size="11" fill="#5B21B6">Outcome verified by data source</text>

  <!-- Arrow 3→4 -->
  <line x1="652" y1="70" x2="678" y2="70" stroke="#4C1D95" stroke-width="2" marker-end="url(#arr-lc)"/>

  <!-- Stage 4 (highlighted) -->
  <rect x="680" y="30" width="220" height="80" rx="8" fill="#DDD6FE" stroke="#4C1D95" stroke-width="1.8"/>
  <text x="790" y="55" text-anchor="middle" font-size="11" fill="#7C3AED" letter-spacing="1.2">STAGE 4</text>
  <text x="790" y="78" text-anchor="middle" font-size="16" font-weight="700" fill="#4C1D95">Resolved · Payouts</text>
  <text x="790" y="98" text-anchor="middle" font-size="11" fill="#5B21B6">Winners get $1.00 · losers get $0</text>

  <!-- Bottom summary -->
  <line x1="115" y1="130" x2="790" y2="130" stroke="#4C1D95" stroke-width="1" opacity="0.3"/>
  <circle cx="115" cy="130" r="4" fill="#4C1D95" opacity="0.4"/>
  <circle cx="335" cy="130" r="4" fill="#4C1D95" opacity="0.4"/>
  <circle cx="555" cy="130" r="4" fill="#4C1D95" opacity="0.4"/>
  <circle cx="790" cy="130" r="4" fill="#4C1D95" opacity="0.4"/>

  <text x="225" y="155" text-anchor="middle" font-size="11" fill="#7C3AED">deadline</text>
  <text x="445" y="155" text-anchor="middle" font-size="11" fill="#7C3AED">data finalized</text>
  <text x="672" y="155" text-anchor="middle" font-size="11" fill="#7C3AED">auto-settlement</text>
</svg>
