<svg xmlns="http://www.w3.org/2000/svg" viewBox="0 0 760 360" width="760" style="max-width: 760px; background: transparent; font-family: -apple-system, 'Segoe UI', Roboto, 'Helvetica Neue', Arial, sans-serif;">
  <defs>
    <marker id="arr-mo" viewBox="0 0 10 10" refX="9" refY="5" markerWidth="9" markerHeight="9" orient="auto">
      <path d="M 0 0 L 10 5 L 0 10 z" fill="#4C1D95"/>
    </marker>
  </defs>
  <style>
    .title { font-size: 14px; fill: #4C1D95; font-weight: 700; text-anchor: middle; }
    .sub   { font-size: 12px; fill: #4C1D95; opacity: 0.75; text-anchor: middle; }
    .book  { fill: #F5F3FF; stroke: #4C1D95; stroke-width: 1.2; }
    .filled{ fill: #C4B5FD; stroke: #4C1D95; stroke-width: 1.5; }
    .cell  { font-size: 13px; fill: #4C1D95; text-anchor: middle; }
    .cell-b{ font-size: 13px; fill: #4C1D95; text-anchor: middle; font-weight: 700; }
  </style>

  <text class="title" x="220" y="26">Resting asks on the book</text>
  <text class="sub"   x="220" y="44">(before your order)</text>

  <!-- Left: book before -->
  <g>
    <rect class="book" x="40" y="70" width="360" height="36" rx="4"/>
    <text class="cell-b" x="100" y="93">0.64</text>
    <text class="cell"   x="220" y="93">150 shares</text>
    <text class="cell"   x="340" y="93" opacity="0.7">$96</text>

    <rect class="book" x="40" y="112" width="360" height="36" rx="4"/>
    <text class="cell-b" x="100" y="135">0.63</text>
    <text class="cell"   x="220" y="135">100 shares</text>
    <text class="cell"   x="340" y="135" opacity="0.7">$63</text>

    <rect class="book" x="40" y="154" width="360" height="36" rx="4"/>
    <text class="cell-b" x="100" y="177">0.62</text>
    <text class="cell"   x="220" y="177">100 shares</text>
    <text class="cell"   x="340" y="177" opacity="0.7">$62</text>

    <text class="cell" x="220" y="213" opacity="0.6">↑ best ask at top of book ↓</text>
  </g>

  <!-- arrow to right -->
  <line x1="420" y1="130" x2="470" y2="130" stroke="#4C1D95" stroke-width="2" marker-end="url(#arr-mo)"/>
  <text class="sub" x="445" y="118">Buy 250</text>

  <text class="title" x="600" y="26">Your order walks the book</text>
  <text class="sub"   x="600" y="44">(filled against 2 levels)</text>

  <!-- Right: filled portions -->
  <g>
    <rect class="book" x="490" y="70" width="240" height="36" rx="4"/>
    <text class="cell-b" x="530" y="93">0.64</text>
    <text class="cell"   x="620" y="93" opacity="0.6">skipped</text>

    <rect class="filled" x="490" y="112" width="240" height="36" rx="4"/>
    <text class="cell-b" x="530" y="135">0.63</text>
    <text class="cell-b" x="620" y="135">+150</text>
    <text class="cell"   x="685" y="135" opacity="0.7">(2nd)</text>

    <rect class="filled" x="490" y="154" width="240" height="36" rx="4"/>
    <text class="cell-b" x="530" y="177">0.62</text>
    <text class="cell-b" x="620" y="177">+100</text>
    <text class="cell"   x="685" y="177" opacity="0.7">(1st)</text>
  </g>

  <!-- Summary box -->
  <rect x="40" y="250" width="690" height="80" rx="6" fill="#EDE9FE" stroke="#4C1D95" stroke-width="1.5"/>
  <text class="title" x="385" y="272">Result</text>
  <g font-size="13" fill="#4C1D95">
    <text x="80"  y="298" font-weight="700">100</text>
    <text x="140" y="298">shares @ 0.62</text>

    <text x="290" y="298" font-weight="700">+ 150</text>
    <text x="360" y="298">shares @ 0.63</text>

    <text x="510" y="298" font-weight="700">= 250 shares</text>

    <text x="200" y="320" opacity="0.85">Average price</text>
    <text x="290" y="320" font-weight="700">0.626</text>
    <text x="355" y="320" opacity="0.85">· Slippage vs best ask</text>
    <text x="510" y="320" font-weight="700">+0.006</text>
  </g>
</svg>
